<?xml version="1.0" standalone="no"?>
<!DOCTYPE svg PUBLIC "-//W3C//DTD SVG 20010904//EN"
 "http://www.w3.org/TR/2001/REC-SVG-20010904/DTD/svg10.dtd">
<svg version="1.0" xmlns="http://www.w3.org/2000/svg"
 width="500.000000pt" height="500.000000pt" viewBox="0 0 500.000000 500.000000"
 preserveAspectRatio="xMidYMid meet">

<g transform="translate(0.000000,500.000000) scale(0.100000,-0.100000)"
fill="#000000" stroke="none">
<path d="M180 4830 c-13 -23 0 -82 26 -118 l16 -23 -37 7 c-61 11 -67 -22 -19
-118 23 -45 81 -109 192 -210 56 -51 57 -60 17 -122 -37 -56 -77 -200 -82
-298 -5 -86 -3 -106 22 -185 22 -73 26 -98 21 -148 -19 -173 -19 -183 -2 -227
35 -86 130 -158 245 -184 61 -14 82 -15 134 -4 34 6 73 18 85 27 13 8 26 13
28 10 2 -2 -1 -104 -7 -227 -9 -173 -9 -259 0 -379 17 -216 25 -266 86 -511
72 -291 108 -472 147 -750 29 -209 32 -260 33 -465 0 -217 -1 -233 -23 -287
-19 -47 -37 -69 -100 -122 -142 -118 -182 -170 -182 -234 0 -84 78 -120 276
-129 115 -5 125 -4 175 20 30 13 70 41 90 61 20 20 37 30 36 24 -3 -77 47
-123 162 -153 148 -38 349 -56 701 -64 379 -9 943 1 1031 19 60 11 177 52 269
93 30 13 125 55 210 91 310 134 441 209 599 340 163 136 283 295 354 466 75
182 85 208 117 310 42 138 60 250 60 385 0 133 -19 218 -65 301 -68 121 -173
184 -307 184 -61 0 -76 -4 -105 -26 -34 -26 -44 -54 -18 -54 8 0 15 4 15 8 0
4 13 15 29 25 58 34 199 13 262 -40 153 -129 200 -351 134 -638 -38 -169 -140
-442 -207 -557 -102 -177 -280 -357 -467 -475 -45 -29 -263 -135 -376 -184
-27 -12 -86 -37 -130 -56 -168 -72 -292 -121 -355 -137 -154 -42 -1150 -45
-1460 -6 -257 33 -278 37 -345 68 -57 27 -64 34 -71 66 -15 84 35 181 139 268
128 106 256 130 469 87 120 -24 381 -38 392 -21 13 22 -39 34 -183 43 -180 11
-252 23 -361 55 -116 35 -211 88 -287 159 -63 59 -64 61 -85 150 -11 50 -31
111 -44 137 -31 61 -54 158 -54 228 0 130 60 349 138 505 29 59 121 195 156
231 129 133 253 270 258 285 11 28 -12 33 -72 19 -106 -25 -237 -130 -317
-252 -57 -88 -128 -243 -142 -310 -6 -29 -23 -93 -38 -143 -26 -89 -26 -93
-20 -320 6 -248 18 -312 71 -400 57 -93 59 -99 64 -195 7 -154 -32 -290 -119
-421 -42 -63 -83 -100 -140 -129 -73 -38 -302 -21 -374 26 -63 41 -34 122 76
211 185 149 189 158 196 438 4 153 1 225 -16 370 -42 360 -88 610 -165 900
-83 310 -102 514 -85 903 9 236 11 246 34 273 67 80 100 215 84 337 -10 70
-23 102 -43 102 -20 0 -65 -206 -91 -410 -4 -37 -12 -49 -39 -68 -71 -48 -159
-55 -249 -18 -82 34 -132 71 -168 125 -33 49 -34 57 -13 241 5 43 0 81 -21
165 -22 88 -26 121 -21 174 11 106 33 185 76 273 35 70 39 86 30 107 -6 14
-54 67 -108 117 -91 86 -168 192 -150 209 3 3 22 3 43 -1 25 -4 49 -20 78 -52
101 -110 181 -175 232 -188 25 -6 27 -5 20 17 -4 13 -21 40 -37 59 -31 40
-166 149 -202 165 -24 10 -65 55 -85 92 -12 24 -15 73 -4 73 24 0 167 -47 213
-70 30 -15 93 -40 140 -55 80 -25 91 -26 190 -18 255 20 356 6 505 -71 147
-75 311 -269 397 -468 48 -111 92 -303 108 -466 18 -191 44 -252 142 -333 176
-146 387 -249 611 -298 114 -25 270 -78 362 -123 244 -119 438 -328 585 -633
143 -294 172 -569 100 -925 -42 -206 -45 -359 -11 -438 59 -132 188 -164 387
-97 114 39 191 85 261 157 145 147 229 354 241 594 5 117 -12 222 -60 354 -17
47 -41 135 -55 195 -21 96 -23 128 -19 250 3 101 10 159 24 207 24 78 112 259
165 338 35 52 47 90 28 90 -8 0 -61 -74 -61 -85 0 -4 -13 -25 -28 -48 -66 -97
-136 -265 -152 -360 -13 -81 -13 -274 1 -357 5 -36 33 -132 60 -215 61 -182
74 -280 59 -435 -29 -284 -181 -527 -388 -622 -163 -74 -329 -80 -396 -13 -73
73 -74 245 -4 580 65 312 -18 713 -210 1005 -67 103 -72 110 -149 201 -179
211 -334 304 -658 392 -71 19 -146 38 -165 42 -76 15 -201 71 -322 143 -244
146 -300 219 -318 422 -22 243 -57 392 -128 538 -42 85 -58 110 -142 217 -113
144 -206 215 -350 266 l-95 34 -227 -2 c-252 -3 -258 -2 -428 72 -161 70 -230
82 -250 45z m290 -347 c0 -7 -73 53 -95 78 -11 13 6 1 38 -25 31 -27 57 -51
57 -53z m473 -864 c10 -73 -20 -206 -60 -264 -18 -27 -17 -14 12 149 14 77 25
144 25 148 0 4 4 8 9 8 4 0 11 -19 14 -41z m916 -1326 c-17 -21 -71 -79 -118
-130 -196 -208 -269 -326 -337 -543 -18 -58 -33 -99 -34 -92 0 21 69 282 90
339 81 217 212 374 366 438 32 13 61 24 63 25 1 0 -12 -17 -30 -37z m-436
-1271 c31 -85 34 -113 7 -62 -19 38 -54 159 -41 144 4 -5 20 -42 34 -82z m132
-264 c40 -41 114 -87 195 -120 62 -26 63 -27 29 -27 -78 -2 -194 -51 -267
-113 -18 -15 -34 -28 -35 -28 -2 0 8 42 21 93 18 73 22 106 17 160 -3 37 -3
67 2 67 4 0 22 -15 38 -32z"/>
</g>
</svg>
