<?xml version="1.0" standalone="no"?>
<!DOCTYPE svg PUBLIC "-//W3C//DTD SVG 20010904//EN"
 "http://www.w3.org/TR/2001/REC-SVG-20010904/DTD/svg10.dtd">
<svg version="1.0" xmlns="http://www.w3.org/2000/svg"
 width="508.000000pt" height="492.000000pt" viewBox="0 0 508.000000 492.000000"
 preserveAspectRatio="xMidYMid meet">

<g transform="translate(0.000000,492.000000) scale(0.100000,-0.100000)"
fill="#d7d9d9" stroke="none">
<path d="M2411 3842 c-97 -37 -187 -164 -212 -297 -18 -96 -6 -286 24 -370 89
-254 261 -444 587 -647 118 -74 268 -158 281 -158 28 0 -1 -21 -73 -56 -73
-34 -92 -38 -153 -38 -95 2 -158 25 -417 154 -259 129 -313 145 -498 145 -142
0 -212 -15 -325 -70 -39 -18 -91 -52 -116 -73 -25 -22 -90 -65 -145 -94 -78
-43 -103 -62 -119 -91 -16 -29 -18 -41 -9 -54 27 -43 52 -25 204 144 42 47 52
53 175 93 116 38 143 43 251 48 159 6 196 -5 354 -109 131 -87 258 -148 400
-194 111 -37 317 -46 483 -21 153 23 277 21 326 -4 53 -27 81 -65 81 -110 0
-74 -66 -115 -285 -176 -47 -13 -129 -18 -375 -24 -311 -8 -407 -18 -430 -45
-37 -45 135 -45 464 0 139 19 208 24 260 19 122 -12 122 -15 11 -70 -87 -43
-100 -53 -103 -76 -6 -52 51 -27 170 74 23 20 67 46 95 57 200 79 604 299 822
449 69 46 143 93 165 103 181 80 290 11 187 -118 -126 -160 -795 -588 -1215
-778 -406 -183 -486 -208 -601 -186 -112 20 -322 104 -855 341 -279 124 -422
184 -585 245 -401 150 -787 218 -1103 194 -117 -9 -142 -13 -131 -23 2 -2 60
1 129 6 295 22 627 -29 995 -154 94 -32 324 -121 410 -159 28 -12 187 -82 355
-157 324 -143 564 -242 695 -287 71 -24 90 -27 175 -22 99 4 96 4 310 94 336
143 602 285 965 517 304 194 497 356 511 430 14 79 -29 112 -133 102 -75 -6
-132 -33 -273 -131 -111 -76 -450 -274 -585 -342 -153 -77 -274 -124 -293
-114 -9 5 -39 12 -67 17 l-50 7 75 17 c159 35 268 87 296 142 49 95 -57 198
-205 198 -25 0 -116 -9 -201 -20 -85 -11 -187 -20 -226 -20 -197 0 -421 76
-623 212 -58 39 -134 85 -170 102 -63 29 -72 31 -186 31 -124 0 -240 -23 -342
-66 -24 -10 -43 -16 -43 -12 0 22 148 97 247 125 108 30 254 29 382 -2 73 -17
138 -45 285 -120 362 -184 430 -197 609 -111 45 21 107 44 137 50 62 13 114
40 320 166 80 49 170 99 200 112 93 38 229 28 395 -30 206 -72 324 -92 490
-84 124 7 305 44 432 89 111 39 67 37 -63 -4 -161 -49 -279 -68 -426 -68 -144
0 -218 14 -428 80 -150 48 -174 52 -265 53 l-100 2 -85 -46 c-47 -25 -150 -85
-230 -134 -133 -81 -236 -132 -247 -122 -2 3 18 17 44 33 238 139 515 383 616
540 79 125 127 271 127 387 0 70 -29 206 -55 257 -54 107 -175 176 -295 167
-178 -12 -354 -177 -415 -390 -9 -32 -18 -57 -20 -55 -2 2 -20 34 -40 72 -169
319 -514 537 -724 458z m238 -25 c188 -76 378 -256 479 -454 26 -51 49 -93 52
-93 3 0 16 37 28 83 46 165 142 286 279 354 64 32 85 37 142 37 102 0 198 -53
251 -139 58 -94 80 -286 46 -415 -49 -191 -189 -377 -420 -562 -99 -80 -265
-194 -343 -238 l-41 -23 -118 64 c-486 264 -734 529 -789 845 -19 108 -19 162
-1 257 31 162 101 258 223 303 52 19 135 12 212 -19z m-1239 -1485 c0 -4 -28
-38 -61 -75 -44 -49 -67 -67 -82 -65 -32 5 -31 23 4 63 40 45 139 100 139 77z
m1490 -511 c18 -5 -3 -11 -75 -20 -139 -18 -385 -27 -385 -14 0 18 145 32 415
40 11 1 31 -2 45 -6z m286 -89 c-10 -16 -98 -72 -113 -72 -29 0 -10 21 49 54
60 34 77 38 64 18z"/>
</g>
</svg>
