<?xml version="1.0" standalone="no"?>
<!DOCTYPE svg PUBLIC "-//W3C//DTD SVG 20010904//EN"
 "http://www.w3.org/TR/2001/REC-SVG-20010904/DTD/svg10.dtd">
<svg version="1.0" xmlns="http://www.w3.org/2000/svg"
 width="511.000000pt" height="488.000000pt" viewBox="0 0 511.000000 488.000000"
 preserveAspectRatio="xMidYMid meet">

<g transform="translate(0.000000,488.000000) scale(0.100000,-0.100000)"
fill="#000000" stroke="none">
<path d="M2674 4651 c-100 -27 -429 -166 -744 -313 -308 -144 -1047 -597
-1315 -805 -268 -208 -349 -337 -265 -418 27 -25 40 -30 99 -33 120 -7 214 30
396 157 154 108 227 153 495 308 271 156 414 229 599 307 122 52 134 55 154
41 13 -8 54 -18 92 -23 80 -10 78 -11 -70 -45 -216 -50 -362 -132 -385 -218
-22 -80 24 -160 117 -206 56 -27 63 -28 203 -27 89 1 182 8 240 18 123 22 402
32 496 17 100 -15 229 -54 374 -112 140 -57 142 -58 330 -182 237 -157 279
-172 480 -171 124 1 161 5 255 29 61 15 155 45 210 66 55 21 103 39 107 39 4
0 -15 -53 -41 -117 -27 -65 -76 -192 -111 -283 -120 -317 -218 -486 -369 -640
-183 -186 -412 -320 -676 -396 -205 -59 -438 -33 -680 76 l-70 32 130 66 c307
157 525 361 640 597 51 105 75 194 75 285 0 240 -173 419 -407 420 -164 1
-326 -85 -410 -218 l-34 -53 -35 58 c-19 32 -63 86 -97 120 -180 183 -437 203
-606 48 -168 -156 -182 -403 -40 -688 119 -235 310 -411 626 -578 117 -62 117
-62 -20 -98 -107 -28 -200 -35 -287 -22 -110 17 -153 33 -390 146 -341 163
-417 185 -626 185 -245 0 -445 -67 -589 -197 -40 -36 -98 -73 -171 -109 -167
-81 -234 -139 -234 -201 0 -27 25 -53 52 -53 25 0 139 113 211 208 55 72 101
98 283 158 143 47 248 64 386 64 166 0 229 -22 413 -145 281 -188 504 -282
757 -320 156 -24 312 -17 553 25 33 5 119 10 190 10 115 0 136 -3 180 -24 91
-42 139 -119 116 -189 -32 -96 -220 -183 -505 -232 -65 -11 -163 -15 -370 -15
-376 0 -572 -18 -622 -55 -18 -13 -18 -14 -1 -32 15 -15 33 -18 130 -16 129 2
350 23 587 56 135 19 184 22 273 16 182 -13 186 -22 41 -86 -116 -51 -177 -95
-172 -127 8 -54 82 -22 213 91 69 59 100 76 220 127 77 33 193 86 258 118 186
92 649 361 794 462 191 132 261 170 348 191 86 20 150 15 189 -16 38 -30 36
-91 -5 -152 -94 -143 -476 -421 -1020 -742 -340 -202 -509 -289 -844 -438
-466 -206 -550 -225 -746 -167 -100 30 -427 155 -931 356 -491 195 -666 263
-883 339 -82 29 -162 58 -177 64 -23 9 -28 8 -28 -4 0 -8 6 -15 14 -15 36 0
561 -198 1140 -430 836 -335 950 -371 1103 -349 93 13 104 16 238 72 423 173
687 302 1030 502 629 366 1023 652 1127 814 78 124 -8 219 -174 191 -97 -16
-170 -52 -355 -177 -189 -128 -619 -381 -812 -478 -61 -30 -168 -79 -240 -110
l-130 -55 -58 15 c-32 8 -76 18 -98 23 -40 8 -39 8 48 26 211 42 384 122 422
196 19 37 19 113 0 150 -20 38 -72 77 -135 101 -68 26 -227 25 -402 -1 -283
-44 -470 -38 -681 21 -188 52 -354 133 -557 269 -143 96 -202 126 -282 145
-140 33 -366 10 -565 -58 -57 -19 -103 -32 -103 -28 0 16 105 85 178 116 132
57 236 78 397 78 209 0 273 -19 615 -183 269 -129 306 -141 453 -147 128 -6
198 4 313 43 l70 25 126 -51 c215 -86 388 -113 548 -86 271 47 557 195 763
395 200 194 272 323 473 851 97 255 87 240 203 300 55 28 117 64 139 79 70 52
93 143 38 157 -48 12 -102 -34 -223 -191 -59 -76 -67 -83 -140 -113 -253 -103
-473 -141 -653 -113 -100 16 -152 41 -350 171 -207 136 -388 217 -610 272
-124 31 -395 31 -610 -1 -189 -28 -339 -26 -410 6 -88 39 -135 122 -110 197
28 86 197 165 461 216 100 20 151 22 453 25 355 3 497 14 555 43 48 23 49 38
5 52 -63 21 -311 3 -704 -51 -118 -16 -179 -20 -255 -15 -107 7 -154 16 -155
30 -1 4 49 31 110 59 61 27 125 63 141 78 37 35 35 63 -5 67 -34 4 -106 -41
-193 -122 -50 -46 -81 -64 -174 -102 -287 -116 -796 -396 -1113 -611 -92 -64
-197 -128 -232 -144 -109 -49 -238 -56 -284 -14 -25 22 -27 83 -4 130 21 46
177 194 299 285 255 190 712 476 1090 682 226 123 824 386 940 413 70 17 172
19 235 4 93 -21 538 -187 1140 -424 352 -139 1008 -375 1041 -375 5 0 9 3 9 8
0 4 -42 20 -93 37 -192 61 -612 214 -947 345 -615 240 -961 371 -1085 410 -99
31 -221 35 -311 11z m-318 -580 c-17 -19 -165 -101 -182 -101 -23 0 105 104
155 126 34 15 50 0 27 -25z m864 -141 c20 -12 -23 -28 -115 -41 -81 -12 -603
-25 -594 -15 8 8 270 43 409 55 147 12 282 12 300 1z m1643 -600 c-1 -27 -10
-43 -41 -70 -43 -38 -180 -115 -189 -107 -8 9 78 116 136 170 64 60 97 62 94
7z m-2557 -214 c96 -47 193 -141 242 -233 30 -56 32 -65 22 -105 -14 -62 -12
-104 5 -118 38 -31 58 39 35 122 -29 102 139 268 310 307 157 36 319 -13 414
-126 110 -130 114 -348 11 -552 -75 -151 -229 -318 -408 -447 -99 -71 -333
-194 -368 -194 -12 0 -76 30 -143 66 -371 204 -555 400 -655 701 -77 228 -37
424 109 540 84 66 136 83 251 80 88 -2 101 -5 175 -41z m297 -386 c7 -32 0
-60 -14 -60 -5 0 -9 20 -9 45 0 51 14 60 23 15z m-2255 -1077 c-18 -26 -61
-76 -95 -111 -47 -48 -68 -63 -85 -60 -33 4 -35 42 -5 86 16 25 52 53 108 84
46 26 90 48 97 48 8 0 0 -19 -20 -47z m2077 -689 c-151 -22 -481 -54 -552 -53
-38 0 -77 4 -88 8 -19 8 -19 8 2 19 51 28 186 38 498 39 229 0 229 0 140 -13z
m380 -120 c-92 -80 -165 -115 -165 -79 0 17 59 57 135 91 69 32 77 29 30 -12z"/>
</g>
</svg>
