<?xml version="1.0" standalone="no"?>
<!DOCTYPE svg PUBLIC "-//W3C//DTD SVG 20010904//EN"
 "http://www.w3.org/TR/2001/REC-SVG-20010904/DTD/svg10.dtd">
<svg version="1.0" xmlns="http://www.w3.org/2000/svg"
 width="505.000000pt" height="494.000000pt" viewBox="0 0 505.000000 494.000000"
 preserveAspectRatio="xMidYMid meet">

<g transform="translate(0.000000,494.000000) scale(0.100000,-0.100000)"
fill="#d7d9d9" stroke="none">
<path d="M2469 4301 l-24 -19 -7 -419 c-6 -392 -11 -483 -27 -483 -3 0 -14 17
-23 38 -19 40 -62 72 -99 72 -12 0 -42 -9 -66 -21 -110 -53 -127 -216 -27
-264 37 -17 112 -17 157 0 22 9 23 -19 2 -100 -35 -132 -98 -225 -153 -225
-13 0 -68 14 -121 31 -143 46 -224 31 -270 -52 -45 -80 -35 -195 39 -454 56
-195 67 -288 47 -386 -29 -144 -111 -267 -209 -317 -85 -42 -234 -69 -314 -57
-41 6 -45 9 -39 28 63 212 -47 477 -199 477 -27 0 -32 16 -56 173 l-11 68 81
120 c128 192 189 326 210 464 29 194 -53 321 -169 260 -60 -31 -129 -145 -156
-257 -20 -81 -29 -296 -18 -419 l8 -96 -77 -109 c-91 -128 -168 -277 -200
-389 -29 -105 -32 -268 -5 -335 22 -54 78 -114 132 -143 57 -29 175 -35 249
-12 31 10 59 15 63 12 3 -4 13 -56 21 -118 18 -128 7 -229 -29 -280 -25 -35
-87 -69 -126 -69 l-28 0 0 73 c0 58 -5 81 -25 117 -45 81 -126 98 -161 34 -19
-35 -15 -106 8 -150 18 -35 82 -95 115 -107 9 -3 4 -14 -16 -36 -55 -58 -120
-36 -256 86 -165 148 -248 187 -383 181 -97 -4 -153 -27 -217 -90 -65 -64 -92
-112 -88 -160 l3 -40 49 66 c53 73 119 129 173 147 19 6 67 9 106 7 93 -4 148
-32 293 -146 136 -108 172 -127 246 -127 61 0 95 21 124 77 11 21 24 28 61 34
83 12 132 43 166 109 18 34 22 57 22 155 0 63 -6 149 -14 191 l-13 77 38 36
39 36 65 -7 c260 -31 461 63 557 258 83 167 82 318 -3 612 -68 237 -76 356
-28 404 32 31 107 31 221 -2 84 -25 90 -25 130 -10 82 31 149 164 168 330 5
41 15 71 33 94 66 88 81 221 82 702 0 146 2 268 5 271 3 3 26 1 51 -3 54 -10
233 -32 444 -55 193 -20 215 -28 231 -86 21 -78 -6 -561 -42 -735 l-10 -53
-62 0 c-83 0 -139 -28 -174 -87 -62 -106 -4 -211 102 -182 50 14 115 83 140
148 11 28 23 51 28 51 18 0 97 -62 145 -114 64 -71 107 -156 123 -246 15 -86
5 -174 -46 -410 -19 -87 -35 -185 -35 -217 0 -109 71 -207 189 -261 31 -14 78
-45 104 -68 66 -59 149 -71 212 -30 29 19 62 87 75 155 13 70 13 412 -1 771
-10 272 -6 430 10 430 5 0 11 -35 14 -77 8 -103 21 -143 58 -181 44 -45 82
-43 131 5 l38 37 0 -84 c0 -100 14 -241 29 -297 15 -54 52 -107 78 -111 38 -6
46 30 53 218 7 180 20 240 56 254 8 3 39 -8 68 -24 88 -50 161 -34 248 56 58
61 98 131 171 304 32 74 66 146 77 160 26 33 30 151 5 130 -35 -29 -106 -154
-164 -289 -72 -167 -118 -242 -175 -283 -57 -41 -81 -44 -133 -19 -80 39 -130
26 -164 -42 -19 -35 -23 -68 -30 -202 -4 -88 -8 -173 -8 -188 -1 -16 -5 -25
-11 -22 -21 13 -49 140 -60 272 -12 160 -20 197 -42 201 -9 2 -30 -15 -49 -37
-18 -23 -38 -41 -45 -41 -22 0 -72 50 -83 83 -6 18 -17 75 -23 127 -11 77 -16
95 -31 98 -12 3 -22 -8 -34 -35 -21 -46 -22 -186 -9 -685 l9 -336 -51 25 c-41
20 -59 24 -92 18 -101 -17 -190 -123 -190 -226 0 -27 -4 -49 -8 -49 -19 0
-100 60 -129 94 -53 65 -64 138 -38 251 80 348 87 389 82 480 -7 141 -52 237
-159 345 -29 29 -77 66 -105 82 -29 17 -53 33 -53 36 0 4 5 25 10 47 34 141
70 478 70 654 0 100 -4 133 -18 161 -22 44 -78 76 -150 84 -32 4 -156 18 -277
32 -121 13 -244 29 -274 34 -79 14 -106 12 -132 -9z m-134 -865 c24 -24 49
-95 43 -123 -6 -29 -55 -56 -111 -61 -47 -4 -58 -1 -77 18 -19 19 -21 30 -17
68 4 38 12 53 46 84 47 45 81 49 116 14z m842 -182 c3 -8 -5 -37 -17 -64 -52
-110 -151 -152 -180 -75 -16 43 13 105 65 136 39 24 123 26 132 3z m-1913 -45
c36 -17 51 -63 50 -149 -2 -82 -23 -156 -82 -279 -36 -76 -162 -274 -170 -266
-2 2 -8 55 -13 117 -21 266 39 491 150 565 40 27 34 26 65 12z m-220 -886 c2
-10 10 -53 17 -95 l13 -78 -37 -37 c-104 -104 -80 -288 54 -405 58 -52 79 -89
79 -145 0 -33 -56 -53 -147 -53 -85 0 -133 17 -181 63 -90 87 -79 303 25 512
40 79 153 255 164 255 4 0 10 -8 13 -17z m2903 -97 c27 -32 31 -92 8 -136 -18
-35 -67 -73 -114 -89 -46 -15 -123 -14 -146 3 -40 29 -9 154 51 207 65 57 159
64 201 15z m-2773 -120 c96 -40 163 -217 137 -360 -15 -82 -23 -89 -74 -69
-23 9 -45 19 -49 22 -6 5 -52 271 -65 379 -6 47 -1 50 51 28z m-60 -190 c14
-93 24 -171 22 -173 -8 -9 -46 18 -70 50 -53 70 -70 165 -41 234 19 44 46 77
55 66 4 -5 19 -84 34 -177z m2826 70 c-18 -48 -58 -76 -107 -76 -42 0 -103 25
-103 42 0 4 24 8 54 8 40 0 68 7 107 28 30 16 55 28 57 27 1 -1 -2 -14 -8 -29z
m-2709 -367 c20 -10 20 -11 3 -30 -24 -27 -34 -24 -34 11 0 33 2 35 31 19z
m-301 -376 c42 -24 62 -76 58 -153 -3 -59 -5 -65 -23 -62 -62 11 -121 98 -112
166 3 22 14 46 23 53 22 16 20 16 54 -4z"/>
</g>
</svg>
